# xmcd CD database file
#
# Track frame offsets:
#	150
#	21512
#	41325
#	62625
#
# Disc length: 1094 seconds
#
# Revision: 0
# Processed by: cddbd v1.5PL3 Copyright (c) Steve Scherf et al.
# Submitted via: CDex 1.50beta9
#
DISCID=2d044404
DTITLE=リエ・スクランブル - 文句があるなら来なさい！
DYEAR=1996
DGENRE=J-rock
TTITLE0=文句があるなら来なさい！
TTITLE1=ＢＡＫＡにしないで
TTITLE2=文句があるなら来なさい！　カラオケ
TTITLE3=ＢＡＫＡにしないで　カラオケ
EXTD=YEAR: 1996
EXTT0=
EXTT1=
EXTT2=
EXTT3=
PLAYORDER=
